<?xml version="1.0" encoding="UTF-8" standalone="no"?>
<!-- Created with Inkscape (http://www.inkscape.org/) -->

<svg
   xmlns:dc="http://purl.org/dc/elements/1.1/"
   xmlns:cc="http://creativecommons.org/ns#"
   xmlns:rdf="http://www.w3.org/1999/02/22-rdf-syntax-ns#"
   xmlns:svg="http://www.w3.org/2000/svg"
   xmlns="http://www.w3.org/2000/svg"
   xmlns:sodipodi="http://sodipodi.sourceforge.net/DTD/sodipodi-0.dtd"
   xmlns:inkscape="http://www.inkscape.org/namespaces/inkscape"
   width="210mm"
   height="297mm"
   viewBox="0 0 210 297"
   version="1.1"
   id="svg2408"
   inkscape:version="0.92.4 (5da689c313, 2019-01-14)"
   sodipodi:docname="moneyWheel.svg">
  <defs
     id="defs2402" />
  <sodipodi:namedview
     id="base"
     pagecolor="#ffffff"
     bordercolor="#666666"
     borderopacity="1.0"
     inkscape:pageopacity="0.0"
     inkscape:pageshadow="2"
     inkscape:zoom="2.8"
     inkscape:cx="228.58097"
     inkscape:cy="730.25069"
     inkscape:document-units="mm"
     inkscape:current-layer="layer1"
     showgrid="false"
     inkscape:window-width="3840"
     inkscape:window-height="2019"
     inkscape:window-x="-14"
     inkscape:window-y="-14"
     inkscape:window-maximized="1" />
  <metadata
     id="metadata2405">
    <rdf:RDF>
      <cc:Work
         rdf:about="">
        <dc:format>image/svg+xml</dc:format>
        <dc:type
           rdf:resource="http://purl.org/dc/dcmitype/StillImage" />
        <dc:title></dc:title>
      </cc:Work>
    </rdf:RDF>
  </metadata>
  <g
     inkscape:label="Layer 1"
     inkscape:groupmode="layer"
     id="layer1">
    <g
       id="g3288">
      <g
         id="g2979">
        <path
           style="fill:#100000;fill-opacity:1;stroke:#000000;stroke-width:1.00157475;stroke-linejoin:miter;stroke-miterlimit:4;stroke-dasharray:none;stroke-opacity:1"
           d="M 190.71484 225.37695 A 180.71427 180.71427 0 0 0 10 406.0918 A 180.71427 180.71427 0 0 0 190.71484 586.80469 A 180.71427 180.71427 0 0 0 371.42773 406.0918 A 180.71427 180.71427 0 0 0 190.71484 225.37695 z M 190.71484 233.21289 A 172.87884 172.87884 0 0 1 363.59375 406.0918 A 172.87884 172.87884 0 0 1 190.71484 578.9707 A 172.87884 172.87884 0 0 1 17.835938 406.0918 A 172.87884 172.87884 0 0 1 190.71484 233.21289 z "
           transform="scale(0.26458333)"
           id="path2953" />
        <path
           style="fill:none;stroke:#000000;stroke-width:0.26458332px;stroke-linecap:butt;stroke-linejoin:miter;stroke-opacity:1"
           d="m 50.459967,61.704243 0.472324,91.570307"
           id="path2960"
           inkscape:connector-curvature="0" />
        <path
           style="fill:none;stroke:#000000;stroke-width:0.26458332px;stroke-linecap:butt;stroke-linejoin:miter;stroke-opacity:1"
           d="M 4.4412201,106.21652 H 96.100446"
           id="path2962"
           inkscape:connector-curvature="0" />
        <path
           style="fill:none;stroke:#000000;stroke-width:0.26458332px;stroke-linecap:butt;stroke-linejoin:miter;stroke-opacity:1"
           d="M 9.7328867,86.845237 92.320683,125.96577"
           id="path2964"
           inkscape:connector-curvature="0" />
        <path
           style="fill:none;stroke:#000000;stroke-width:0.26458332px;stroke-linecap:butt;stroke-linejoin:miter;stroke-opacity:1"
           d="M 26.930802,67.851935 75.21726,146.093"
           id="path2966"
           inkscape:connector-curvature="0" />
        <path
           style="fill:none;stroke:#000000;stroke-width:0.26458332px;stroke-linecap:butt;stroke-linejoin:miter;stroke-opacity:1"
           d="M 72.38244,66.906994 27.214285,147.98289"
           id="path2968"
           inkscape:connector-curvature="0" />
        <path
           style="fill:none;stroke:#000000;stroke-width:0.26458332px;stroke-linecap:butt;stroke-linejoin:miter;stroke-opacity:1"
           d="M 90.241815,84.482886 8.9769343,128.89509"
           id="path2970"
           inkscape:connector-curvature="0" />
      </g>
      <g
         id="g3103">
        <path
           style="fill:#aa0000;fill-opacity:1;stroke:#000000;stroke-width:0.35770527;stroke-linejoin:miter;stroke-miterlimit:4;stroke-dasharray:none;stroke-opacity:1"
           d="m 192.78169,399.33331 c 0.0664,-0.16654 18.1797,-32.7066 40.25179,-72.31125 l 40.13108,-72.00846 1.65464,0.85318 c 3.10829,1.60274 10.77699,6.43397 15.14716,9.54262 17.36246,12.35049 32.21262,27.57931 43.63971,44.75245 2.22198,3.33928 4.44715,6.79464 4.94484,7.67857 l 0.90488,1.60714 -70.92841,38.75 c -39.01063,21.3125 -72.03946,39.35492 -73.39741,40.09427 -1.35794,0.73935 -2.41467,1.20801 -2.34828,1.04148 z"
           id="path2985"
           inkscape:connector-curvature="0"
           transform="scale(0.26458333)" />
        <g
           aria-label="$100"
           style="font-style:normal;font-weight:normal;font-size:10.58333302px;line-height:1.25;font-family:sans-serif;letter-spacing:0px;word-spacing:0px;fill:#000000;fill-opacity:1;stroke:none;stroke-width:0.26458332"
           id="text3007"
           transform="rotate(-39.566923,147.32051,115.76125)"
           inkscape:transform-center-x="-5.1971726"
           inkscape:transform-center-y="-2.2678571">
          <path
             d="m 103.65702,46.211323 q 0,0.413411 -0.1602,0.754476 -0.15503,0.335897 -0.44442,0.578776 -0.28938,0.242879 -0.70796,0.387573 -0.41858,0.144694 -0.93535,0.170532 l -0.11369,1.121379 q -0.005,0.03101 -0.0207,0.05684 -0.0103,0.03101 -0.0465,0.04651 -0.0362,0.02067 -0.10336,0.03101 -0.062,0.01034 -0.16536,0.01034 -0.11886,0 -0.1912,-0.0155 -0.0672,-0.01034 -0.10853,-0.03101 -0.0413,-0.0155 -0.0568,-0.05168 -0.0103,-0.03101 0,-0.07235 l 0.11886,-1.116211 q -0.24805,-0.03101 -0.45992,-0.07751 -0.21188,-0.05168 -0.377242,-0.108521 -0.165364,-0.05684 -0.28422,-0.118855 -0.113688,-0.06201 -0.170532,-0.113688 -0.05168,-0.05685 -0.07235,-0.144694 -0.02067,-0.08785 -0.02067,-0.24288 0,-0.113688 0.01034,-0.186035 0.01033,-0.07751 0.031,-0.124023 0.02067,-0.05168 0.05168,-0.06718 0.03617,-0.02067 0.08268,-0.02067 0.06718,0 0.191203,0.07751 0.124023,0.07235 0.325561,0.165365 0.20671,0.08785 0.50126,0.165365 0.29456,0.07751 0.70797,0.07751 0.73381,0 1.11104,-0.289388 0.38241,-0.289388 0.38241,-0.785482 0,-0.30489 -0.13953,-0.506429 -0.13952,-0.206705 -0.37207,-0.351399 -0.22737,-0.149862 -0.52193,-0.253215 -0.28939,-0.10852 -0.59428,-0.217041 -0.29972,-0.10852 -0.59428,-0.248047 -0.28938,-0.139526 -0.516763,-0.346232 -0.227376,-0.206705 -0.366903,-0.501261 -0.139526,-0.299723 -0.139526,-0.733805 0,-0.346233 0.118856,-0.645956 0.118856,-0.299723 0.356567,-0.521932 0.237709,-0.227376 0.599449,-0.366902 0.36173,-0.144694 0.84233,-0.1757 l 0.10335,-1.043864 q 0.005,-0.03101 0.0155,-0.05684 0.0155,-0.03101 0.0517,-0.05168 0.0362,-0.02067 0.0982,-0.02584 0.062,-0.01033 0.17054,-0.01033 0.11368,0 0.18603,0.01033 0.0775,0.01034 0.11369,0.03617 0.0413,0.02067 0.0517,0.05168 0.0103,0.03101 0.0103,0.07235 l -0.11369,1.033529 q 0.15503,0.0155 0.3204,0.05684 0.17053,0.03617 0.31522,0.08785 0.14986,0.04651 0.26872,0.10852 0.11886,0.05684 0.1602,0.09819 0.0465,0.04134 0.062,0.07751 0.0207,0.03617 0.031,0.08268 0.0103,0.04651 0.0155,0.108521 0.0103,0.06201 0.0103,0.139526 0,0.09819 -0.0103,0.170532 -0.005,0.07235 -0.0207,0.113689 -0.0155,0.04134 -0.0413,0.06201 -0.0258,0.02067 -0.062,0.02067 -0.0568,0 -0.18086,-0.06718 -0.12403,-0.06718 -0.31523,-0.144694 -0.18604,-0.07751 -0.43408,-0.144694 -0.24805,-0.06718 -0.55294,-0.06718 -0.34623,0 -0.59428,0.06718 -0.24288,0.06718 -0.39791,0.191203 -0.14986,0.118856 -0.22221,0.289388 -0.0672,0.170532 -0.0672,0.372071 0,0.310058 0.13953,0.516764 0.14469,0.206706 0.37207,0.3514 0.23255,0.144694 0.5271,0.248046 0.29456,0.103353 0.59945,0.217041 0.31006,0.108521 0.60461,0.24288 0.29456,0.134358 0.52193,0.341064 0.23255,0.206706 0.37207,0.506429 0.1447,0.294556 0.1447,0.728638 z"
             style="font-style:normal;font-variant:normal;font-weight:normal;font-stretch:normal;font-family:Calibri;-inkscape-font-specification:Calibri;stroke-width:0.26458332"
             id="path3009"
             inkscape:connector-curvature="0" />
          <path
             d="m 109.00553,47.75128 q 0,0.09819 -0.0155,0.165365 -0.0155,0.06718 -0.0414,0.108521 -0.0258,0.04134 -0.062,0.06201 -0.031,0.0155 -0.0672,0.0155 h -3.49332 q -0.0362,0 -0.0672,-0.0155 -0.031,-0.02067 -0.062,-0.06201 -0.0258,-0.04134 -0.0413,-0.108521 -0.0155,-0.06718 -0.0155,-0.165365 0,-0.09302 0.0155,-0.160196 0.0155,-0.06718 0.0362,-0.108521 0.0258,-0.04651 0.0568,-0.06718 0.0362,-0.02584 0.0775,-0.02584 h 1.39526 v -5.08496 l -1.29191,0.769978 q -0.0982,0.05168 -0.1602,0.06201 -0.0568,0.01033 -0.093,-0.02067 -0.0362,-0.03617 -0.0517,-0.113689 -0.0103,-0.07751 -0.0103,-0.19637 0,-0.08785 0.005,-0.149862 0.0103,-0.06201 0.0258,-0.103352 0.0155,-0.04134 0.0413,-0.07235 0.031,-0.03101 0.0775,-0.06201 l 1.53996,-0.98702 q 0.0207,-0.0155 0.0517,-0.02584 0.031,-0.01034 0.0775,-0.02067 0.0465,-0.01033 0.10852,-0.01033 0.062,-0.0052 0.15503,-0.0052 0.12403,0 0.20671,0.01034 0.0827,0.01034 0.12919,0.03101 0.0465,0.0155 0.062,0.04651 0.0155,0.02584 0.0155,0.05684 v 5.87561 h 1.20923 q 0.0413,0 0.0775,0.02584 0.0362,0.02067 0.0568,0.06718 0.0258,0.04134 0.0362,0.108521 0.0155,0.06718 0.0155,0.160196 z"
             style="font-style:normal;font-variant:normal;font-weight:normal;font-stretch:normal;font-family:Calibri;-inkscape-font-specification:Calibri;stroke-width:0.26458332"
             id="path3011"
             inkscape:connector-curvature="0" />
          <path
             d="m 114.58658,44.743712 q 0,0.769979 -0.12402,1.405599 -0.11886,0.63562 -0.40308,1.09554 -0.27905,0.454753 -0.7338,0.707968 -0.45475,0.248046 -1.12138,0.248046 -0.63045,0 -1.06454,-0.222208 -0.42891,-0.227377 -0.69246,-0.661459 -0.26355,-0.439249 -0.37724,-1.074869 -0.10852,-0.640788 -0.10852,-1.467611 0,-0.764811 0.12403,-1.400431 0.12402,-0.640788 0.40307,-1.095541 0.27905,-0.45992 0.73381,-0.707967 0.45475,-0.253214 1.11621,-0.253214 0.63562,0 1.06453,0.227376 0.43408,0.222209 0.69763,0.661458 0.26355,0.434082 0.37207,1.07487 0.11369,0.63562 0.11369,1.462443 z m -0.9095,0.06201 q 0,-0.501261 -0.0362,-0.89917 -0.0362,-0.397908 -0.10852,-0.702799 -0.0672,-0.304891 -0.18086,-0.521932 -0.10852,-0.222209 -0.26355,-0.361735 -0.15503,-0.144694 -0.35657,-0.206706 -0.19637,-0.06718 -0.44442,-0.06718 -0.43925,0 -0.71313,0.206705 -0.27389,0.206706 -0.43409,0.568441 -0.15502,0.361735 -0.21187,0.847493 -0.0568,0.485759 -0.0568,1.043864 0,0.749309 0.0775,1.276408 0.0775,0.521932 0.24288,0.852661 0.17053,0.330729 0.42892,0.480591 0.26355,0.149862 0.63562,0.149862 0.28938,0 0.50642,-0.09302 0.22221,-0.09302 0.37724,-0.26355 0.1602,-0.175699 0.26355,-0.418579 0.10336,-0.242879 0.16537,-0.537435 0.062,-0.294555 0.0827,-0.63562 0.0258,-0.346232 0.0258,-0.718302 z"
             style="font-style:normal;font-variant:normal;font-weight:normal;font-stretch:normal;font-family:Calibri;-inkscape-font-specification:Calibri;stroke-width:0.26458332"
             id="path3013"
             inkscape:connector-curvature="0" />
          <path
             d="m 119.96093,44.743712 q 0,0.769979 -0.12402,1.405599 -0.11886,0.63562 -0.40308,1.09554 -0.27905,0.454753 -0.7338,0.707968 -0.45476,0.248046 -1.12138,0.248046 -0.63045,0 -1.06454,-0.222208 -0.42891,-0.227377 -0.69246,-0.661459 -0.26355,-0.439249 -0.37724,-1.074869 -0.10852,-0.640788 -0.10852,-1.467611 0,-0.764811 0.12403,-1.400431 0.12402,-0.640788 0.40307,-1.095541 0.27905,-0.45992 0.73381,-0.707967 0.45475,-0.253214 1.11621,-0.253214 0.63562,0 1.06453,0.227376 0.43408,0.222209 0.69763,0.661458 0.26355,0.434082 0.37207,1.07487 0.11369,0.63562 0.11369,1.462443 z m -0.9095,0.06201 q 0,-0.501261 -0.0362,-0.89917 -0.0362,-0.397908 -0.10852,-0.702799 -0.0672,-0.304891 -0.18086,-0.521932 -0.10852,-0.222209 -0.26355,-0.361735 -0.15503,-0.144694 -0.35657,-0.206706 -0.19637,-0.06718 -0.44442,-0.06718 -0.43925,0 -0.71313,0.206705 -0.27389,0.206706 -0.43409,0.568441 -0.15502,0.361735 -0.21187,0.847493 -0.0568,0.485759 -0.0568,1.043864 0,0.749309 0.0775,1.276408 0.0775,0.521932 0.24288,0.852661 0.17053,0.330729 0.42892,0.480591 0.26354,0.149862 0.63562,0.149862 0.28938,0 0.50642,-0.09302 0.22221,-0.09302 0.37724,-0.26355 0.1602,-0.175699 0.26355,-0.418579 0.10335,-0.242879 0.16537,-0.537435 0.062,-0.294555 0.0827,-0.63562 0.0258,-0.346232 0.0258,-0.718302 z"
             style="font-style:normal;font-variant:normal;font-weight:normal;font-stretch:normal;font-family:Calibri;-inkscape-font-specification:Calibri;stroke-width:0.26458332"
             id="path3015"
             inkscape:connector-curvature="0" />
        </g>
      </g>
      <g
         id="g3111">
        <path
           style="fill:#aa0000;fill-opacity:1;stroke:#000000;stroke-width:0.35770527;stroke-linejoin:miter;stroke-miterlimit:4;stroke-dasharray:none;stroke-opacity:1"
           d="m 192.96022,537.09034 c -0.12914,-22.66781 -0.3341,-61.78563 -0.45547,-86.92849 l -0.22067,-45.71429 44.53136,72.14286 c 24.49224,39.67857 44.92085,72.74104 45.3969,73.47215 l 0.86554,1.3293 -1.92531,1.23161 c -3.27645,2.09592 -10.1755,5.87649 -15.03589,8.23942 -21.22716,10.31984 -44.40841,16.24215 -67.35368,17.20741 l -5.56797,0.23423 z"
           id="path2983"
           inkscape:connector-curvature="0"
           transform="scale(0.26458333)" />
        <g
           inkscape:transform-center-y="5.8391448"
           inkscape:transform-center-x="0.036837476"
           transform="rotate(72.309108,20.208449,57.556583)"
           id="g3062"
           style="font-style:normal;font-weight:normal;font-size:10.58333302px;line-height:1.25;font-family:sans-serif;letter-spacing:0px;word-spacing:0px;fill:#000000;fill-opacity:1;stroke:none;stroke-width:0.26458332"
           aria-label="$100">
          <path
             inkscape:connector-curvature="0"
             id="path3054"
             style="font-style:normal;font-variant:normal;font-weight:normal;font-stretch:normal;font-family:Calibri;-inkscape-font-specification:Calibri;stroke-width:0.26458332"
             d="m 103.65702,46.211323 q 0,0.413411 -0.1602,0.754476 -0.15503,0.335897 -0.44442,0.578776 -0.28938,0.242879 -0.70796,0.387573 -0.41858,0.144694 -0.93535,0.170532 l -0.11369,1.121379 q -0.005,0.03101 -0.0207,0.05684 -0.0103,0.03101 -0.0465,0.04651 -0.0362,0.02067 -0.10336,0.03101 -0.062,0.01034 -0.16536,0.01034 -0.11886,0 -0.1912,-0.0155 -0.0672,-0.01034 -0.10853,-0.03101 -0.0413,-0.0155 -0.0568,-0.05168 -0.0103,-0.03101 0,-0.07235 l 0.11886,-1.116211 q -0.24805,-0.03101 -0.45992,-0.07751 -0.21188,-0.05168 -0.377242,-0.108521 -0.165364,-0.05684 -0.28422,-0.118855 -0.113688,-0.06201 -0.170532,-0.113688 -0.05168,-0.05685 -0.07235,-0.144694 -0.02067,-0.08785 -0.02067,-0.24288 0,-0.113688 0.01034,-0.186035 0.01033,-0.07751 0.031,-0.124023 0.02067,-0.05168 0.05168,-0.06718 0.03617,-0.02067 0.08268,-0.02067 0.06718,0 0.191203,0.07751 0.124023,0.07235 0.325561,0.165365 0.20671,0.08785 0.50126,0.165365 0.29456,0.07751 0.70797,0.07751 0.73381,0 1.11104,-0.289388 0.38241,-0.289388 0.38241,-0.785482 0,-0.30489 -0.13953,-0.506429 -0.13952,-0.206705 -0.37207,-0.351399 -0.22737,-0.149862 -0.52193,-0.253215 -0.28939,-0.10852 -0.59428,-0.217041 -0.29972,-0.10852 -0.59428,-0.248047 -0.28938,-0.139526 -0.516763,-0.346232 -0.227376,-0.206705 -0.366903,-0.501261 -0.139526,-0.299723 -0.139526,-0.733805 0,-0.346233 0.118856,-0.645956 0.118856,-0.299723 0.356567,-0.521932 0.237709,-0.227376 0.599449,-0.366902 0.36173,-0.144694 0.84233,-0.1757 l 0.10335,-1.043864 q 0.005,-0.03101 0.0155,-0.05684 0.0155,-0.03101 0.0517,-0.05168 0.0362,-0.02067 0.0982,-0.02584 0.062,-0.01033 0.17054,-0.01033 0.11368,0 0.18603,0.01033 0.0775,0.01034 0.11369,0.03617 0.0413,0.02067 0.0517,0.05168 0.0103,0.03101 0.0103,0.07235 l -0.11369,1.033529 q 0.15503,0.0155 0.3204,0.05684 0.17053,0.03617 0.31522,0.08785 0.14986,0.04651 0.26872,0.10852 0.11886,0.05684 0.1602,0.09819 0.0465,0.04134 0.062,0.07751 0.0207,0.03617 0.031,0.08268 0.0103,0.04651 0.0155,0.108521 0.0103,0.06201 0.0103,0.139526 0,0.09819 -0.0103,0.170532 -0.005,0.07235 -0.0207,0.113689 -0.0155,0.04134 -0.0413,0.06201 -0.0258,0.02067 -0.062,0.02067 -0.0568,0 -0.18086,-0.06718 -0.12403,-0.06718 -0.31523,-0.144694 -0.18604,-0.07751 -0.43408,-0.144694 -0.24805,-0.06718 -0.55294,-0.06718 -0.34623,0 -0.59428,0.06718 -0.24288,0.06718 -0.39791,0.191203 -0.14986,0.118856 -0.22221,0.289388 -0.0672,0.170532 -0.0672,0.372071 0,0.310058 0.13953,0.516764 0.14469,0.206706 0.37207,0.3514 0.23255,0.144694 0.5271,0.248046 0.29456,0.103353 0.59945,0.217041 0.31006,0.108521 0.60461,0.24288 0.29456,0.134358 0.52193,0.341064 0.23255,0.206706 0.37207,0.506429 0.1447,0.294556 0.1447,0.728638 z" />
          <path
             inkscape:connector-curvature="0"
             id="path3056"
             style="font-style:normal;font-variant:normal;font-weight:normal;font-stretch:normal;font-family:Calibri;-inkscape-font-specification:Calibri;stroke-width:0.26458332"
             d="m 109.00553,47.75128 q 0,0.09819 -0.0155,0.165365 -0.0155,0.06718 -0.0414,0.108521 -0.0258,0.04134 -0.062,0.06201 -0.031,0.0155 -0.0672,0.0155 h -3.49332 q -0.0362,0 -0.0672,-0.0155 -0.031,-0.02067 -0.062,-0.06201 -0.0258,-0.04134 -0.0413,-0.108521 -0.0155,-0.06718 -0.0155,-0.165365 0,-0.09302 0.0155,-0.160196 0.0155,-0.06718 0.0362,-0.108521 0.0258,-0.04651 0.0568,-0.06718 0.0362,-0.02584 0.0775,-0.02584 h 1.39526 v -5.08496 l -1.29191,0.769978 q -0.0982,0.05168 -0.1602,0.06201 -0.0568,0.01033 -0.093,-0.02067 -0.0362,-0.03617 -0.0517,-0.113689 -0.0103,-0.07751 -0.0103,-0.19637 0,-0.08785 0.005,-0.149862 0.0103,-0.06201 0.0258,-0.103352 0.0155,-0.04134 0.0413,-0.07235 0.031,-0.03101 0.0775,-0.06201 l 1.53996,-0.98702 q 0.0207,-0.0155 0.0517,-0.02584 0.031,-0.01034 0.0775,-0.02067 0.0465,-0.01033 0.10852,-0.01033 0.062,-0.0052 0.15503,-0.0052 0.12403,0 0.20671,0.01034 0.0827,0.01034 0.12919,0.03101 0.0465,0.0155 0.062,0.04651 0.0155,0.02584 0.0155,0.05684 v 5.87561 h 1.20923 q 0.0413,0 0.0775,0.02584 0.0362,0.02067 0.0568,0.06718 0.0258,0.04134 0.0362,0.108521 0.0155,0.06718 0.0155,0.160196 z" />
          <path
             inkscape:connector-curvature="0"
             id="path3058"
             style="font-style:normal;font-variant:normal;font-weight:normal;font-stretch:normal;font-family:Calibri;-inkscape-font-specification:Calibri;stroke-width:0.26458332"
             d="m 114.58658,44.743712 q 0,0.769979 -0.12402,1.405599 -0.11886,0.63562 -0.40308,1.09554 -0.27905,0.454753 -0.7338,0.707968 -0.45475,0.248046 -1.12138,0.248046 -0.63045,0 -1.06454,-0.222208 -0.42891,-0.227377 -0.69246,-0.661459 -0.26355,-0.439249 -0.37724,-1.074869 -0.10852,-0.640788 -0.10852,-1.467611 0,-0.764811 0.12403,-1.400431 0.12402,-0.640788 0.40307,-1.095541 0.27905,-0.45992 0.73381,-0.707967 0.45475,-0.253214 1.11621,-0.253214 0.63562,0 1.06453,0.227376 0.43408,0.222209 0.69763,0.661458 0.26355,0.434082 0.37207,1.07487 0.11369,0.63562 0.11369,1.462443 z m -0.9095,0.06201 q 0,-0.501261 -0.0362,-0.89917 -0.0362,-0.397908 -0.10852,-0.702799 -0.0672,-0.304891 -0.18086,-0.521932 -0.10852,-0.222209 -0.26355,-0.361735 -0.15503,-0.144694 -0.35657,-0.206706 -0.19637,-0.06718 -0.44442,-0.06718 -0.43925,0 -0.71313,0.206705 -0.27389,0.206706 -0.43409,0.568441 -0.15502,0.361735 -0.21187,0.847493 -0.0568,0.485759 -0.0568,1.043864 0,0.749309 0.0775,1.276408 0.0775,0.521932 0.24288,0.852661 0.17053,0.330729 0.42892,0.480591 0.26355,0.149862 0.63562,0.149862 0.28938,0 0.50642,-0.09302 0.22221,-0.09302 0.37724,-0.26355 0.1602,-0.175699 0.26355,-0.418579 0.10336,-0.242879 0.16537,-0.537435 0.062,-0.294555 0.0827,-0.63562 0.0258,-0.346232 0.0258,-0.718302 z" />
          <path
             inkscape:connector-curvature="0"
             id="path3060"
             style="font-style:normal;font-variant:normal;font-weight:normal;font-stretch:normal;font-family:Calibri;-inkscape-font-specification:Calibri;stroke-width:0.26458332"
             d="m 119.96093,44.743712 q 0,0.769979 -0.12402,1.405599 -0.11886,0.63562 -0.40308,1.09554 -0.27905,0.454753 -0.7338,0.707968 -0.45476,0.248046 -1.12138,0.248046 -0.63045,0 -1.06454,-0.222208 -0.42891,-0.227377 -0.69246,-0.661459 -0.26355,-0.439249 -0.37724,-1.074869 -0.10852,-0.640788 -0.10852,-1.467611 0,-0.764811 0.12403,-1.400431 0.12402,-0.640788 0.40307,-1.095541 0.27905,-0.45992 0.73381,-0.707967 0.45475,-0.253214 1.11621,-0.253214 0.63562,0 1.06453,0.227376 0.43408,0.222209 0.69763,0.661458 0.26355,0.434082 0.37207,1.07487 0.11369,0.63562 0.11369,1.462443 z m -0.9095,0.06201 q 0,-0.501261 -0.0362,-0.89917 -0.0362,-0.397908 -0.10852,-0.702799 -0.0672,-0.304891 -0.18086,-0.521932 -0.10852,-0.222209 -0.26355,-0.361735 -0.15503,-0.144694 -0.35657,-0.206706 -0.19637,-0.06718 -0.44442,-0.06718 -0.43925,0 -0.71313,0.206705 -0.27389,0.206706 -0.43409,0.568441 -0.15502,0.361735 -0.21187,0.847493 -0.0568,0.485759 -0.0568,1.043864 0,0.749309 0.0775,1.276408 0.0775,0.521932 0.24288,0.852661 0.17053,0.330729 0.42892,0.480591 0.26354,0.149862 0.63562,0.149862 0.28938,0 0.50642,-0.09302 0.22221,-0.09302 0.37724,-0.26355 0.1602,-0.175699 0.26355,-0.418579 0.10335,-0.242879 0.16537,-0.537435 0.062,-0.294555 0.0827,-0.63562 0.0258,-0.346232 0.0258,-0.718302 z" />
        </g>
      </g>
      <g
         id="g3144">
        <path
           style="fill:#00ffff;fill-opacity:1;stroke:#000000;stroke-width:0.09464285;stroke-linejoin:miter;stroke-miterlimit:4;stroke-dasharray:none;stroke-opacity:1"
           d="M 29.980577,96.236701 C 18.970652,91.02124 9.9459771,86.737488 9.9257449,86.717258 c -0.066634,-0.06664 1.5360701,-2.869766 2.3739321,-4.152011 2.74455,-4.200197 6.233362,-7.99224 10.20188,-11.088576 1.037952,-0.809837 4.33902,-3.067407 4.485228,-3.067407 0.08062,0 23.090137,37.231806 23.040308,37.281636 -0.01566,0.0157 -9.036587,-4.23873 -20.046516,-9.454199 z"
           id="path2981"
           inkscape:connector-curvature="0" />
        <g
           aria-label="$500"
           style="font-style:normal;font-variant:normal;font-weight:normal;font-stretch:normal;font-size:10.58333302px;line-height:1.25;font-family:Calibri;-inkscape-font-specification:Calibri;letter-spacing:0px;word-spacing:0px;fill:#000000;fill-opacity:1;stroke:none;stroke-width:0.26458332"
           id="text3066"
           transform="rotate(-138.2416,54.566581,74.481822)">
          <path
             d="m 62.552102,49.424118 q 0,0.413412 -0.160197,0.754476 -0.155029,0.335897 -0.444417,0.578776 -0.289388,0.242879 -0.707967,0.387573 -0.418579,0.144694 -0.935343,0.170532 l -0.113689,1.121379 q -0.0052,0.03101 -0.02067,0.05684 -0.01033,0.03101 -0.04651,0.04651 -0.03617,0.02067 -0.103353,0.03101 -0.06201,0.01033 -0.165364,0.01033 -0.118856,0 -0.191203,-0.0155 -0.06718,-0.01034 -0.108521,-0.03101 -0.04134,-0.0155 -0.05684,-0.05168 -0.01033,-0.03101 0,-0.07235 l 0.118856,-1.116211 q -0.248047,-0.03101 -0.45992,-0.07751 -0.211874,-0.05168 -0.377238,-0.10852 -0.165365,-0.05684 -0.284221,-0.118856 -0.113688,-0.06201 -0.170532,-0.113688 -0.05168,-0.05684 -0.07235,-0.144694 -0.02067,-0.08785 -0.02067,-0.242879 0,-0.113689 0.01034,-0.186036 0.01033,-0.07751 0.03101,-0.124023 0.02067,-0.05168 0.05168,-0.06718 0.03617,-0.02067 0.08268,-0.02067 0.06718,0 0.191202,0.07751 0.124024,0.07235 0.325562,0.165364 0.206706,0.08785 0.501261,0.165365 0.294556,0.07752 0.707967,0.07752 0.733806,0 1.111044,-0.289389 0.382405,-0.289388 0.382405,-0.785481 0,-0.304891 -0.139526,-0.506429 -0.139527,-0.206706 -0.372071,-0.3514 -0.227376,-0.149862 -0.521931,-0.253215 -0.289388,-0.10852 -0.594279,-0.217041 -0.299724,-0.10852 -0.594279,-0.248046 -0.289388,-0.139527 -0.516765,-0.346232 -0.227376,-0.206706 -0.366902,-0.501262 -0.139527,-0.299723 -0.139527,-0.733805 0,-0.346232 0.118856,-0.645956 0.118856,-0.299723 0.356567,-0.521932 0.237712,-0.227376 0.599447,-0.366902 0.361735,-0.144694 0.842326,-0.1757 l 0.103353,-1.043864 q 0.0052,-0.03101 0.0155,-0.05684 0.0155,-0.03101 0.05168,-0.05168 0.03617,-0.02067 0.09819,-0.02584 0.06201,-0.01033 0.170533,-0.01033 0.113688,0 0.186035,0.01033 0.07751,0.01034 0.113688,0.03617 0.04134,0.02067 0.05168,0.05168 0.01034,0.03101 0.01034,0.07235 l -0.113689,1.033529 q 0.15503,0.0155 0.320394,0.05684 0.170533,0.03617 0.315227,0.08785 0.149861,0.04651 0.268717,0.10852 0.118856,0.05684 0.160197,0.09819 0.04651,0.04134 0.06201,0.07751 0.02067,0.03617 0.03101,0.08268 0.01034,0.04651 0.0155,0.10852 0.01034,0.06201 0.01034,0.139526 0,0.09819 -0.01034,0.170533 -0.0052,0.07235 -0.02067,0.113688 -0.0155,0.04134 -0.04134,0.06201 -0.02584,0.02067 -0.06201,0.02067 -0.05684,0 -0.180868,-0.06718 -0.124023,-0.06718 -0.315226,-0.144694 -0.186035,-0.07752 -0.434082,-0.144694 -0.248047,-0.06718 -0.552938,-0.06718 -0.346232,0 -0.594279,0.06718 -0.242879,0.06718 -0.397908,0.191203 -0.149862,0.118855 -0.222209,0.289388 -0.06718,0.170532 -0.06718,0.37207 0,0.310058 0.139526,0.516764 0.144694,0.206706 0.372071,0.3514 0.232544,0.144694 0.527099,0.248047 0.294556,0.103353 0.599447,0.217041 0.310058,0.10852 0.604614,0.242879 0.294556,0.134359 0.521932,0.341064 0.232544,0.206706 0.37207,0.506429 0.144694,0.294556 0.144694,0.728638 z"
             style="stroke-width:0.26458332"
             id="path3080"
             inkscape:connector-curvature="0" />
          <path
             d="m 67.854104,49.165736 q 0,0.537435 -0.180868,0.956014 -0.180867,0.418579 -0.511596,0.707967 -0.330729,0.28422 -0.79065,0.434082 -0.454752,0.149862 -1.012858,0.149862 -0.310058,0 -0.589111,-0.04651 -0.279053,-0.04134 -0.496094,-0.103353 -0.217041,-0.06718 -0.356567,-0.129191 -0.139526,-0.06201 -0.180868,-0.09819 -0.03617,-0.03617 -0.05168,-0.06718 -0.0155,-0.03101 -0.03101,-0.07235 -0.01034,-0.04651 -0.0155,-0.113688 -0.0052,-0.06718 -0.0052,-0.160197 0,-0.08785 0.0052,-0.155029 0.01033,-0.07235 0.03101,-0.113688 0.02067,-0.04651 0.04651,-0.06718 0.03101,-0.02067 0.06718,-0.02067 0.05168,0 0.160197,0.06718 0.108521,0.06201 0.289388,0.139527 0.186035,0.07235 0.454753,0.139526 0.273885,0.06718 0.645955,0.06718 0.346232,0 0.63562,-0.08268 0.289388,-0.08268 0.496094,-0.258382 0.211873,-0.1757 0.330729,-0.43925 0.118856,-0.268717 0.118856,-0.651123 0,-0.320394 -0.103353,-0.563273 -0.09818,-0.248047 -0.310059,-0.408244 -0.206705,-0.165364 -0.527099,-0.242879 -0.320394,-0.08268 -0.764811,-0.08268 -0.315227,0 -0.542603,0.03101 -0.227376,0.03101 -0.423747,0.03101 -0.144694,0 -0.206705,-0.06718 -0.06201,-0.06718 -0.06201,-0.258382 v -2.723348 q 0,-0.170532 0.07751,-0.253214 0.08268,-0.08268 0.232544,-0.08268 h 2.961059 q 0.04134,0 0.07752,0.02584 0.04134,0.02067 0.06718,0.06718 0.02584,0.04651 0.03617,0.118856 0.0155,0.07235 0.0155,0.170532 0,0.186035 -0.05168,0.289388 -0.05168,0.103353 -0.144694,0.103353 H 64.74835 v 1.875854 q 0.180868,-0.02584 0.366903,-0.03101 0.191203,-0.0052 0.43925,-0.0052 0.573608,0 1.002522,0.139526 0.428915,0.134359 0.713135,0.387573 0.289388,0.248047 0.434082,0.604615 0.149862,0.356567 0.149862,0.790649 z"
             style="stroke-width:0.26458332"
             id="path3082"
             inkscape:connector-curvature="0" />
          <path
             d="m 73.481667,47.956507 q 0,0.769979 -0.124023,1.405599 -0.118856,0.63562 -0.403077,1.095541 -0.279052,0.454752 -0.733805,0.707967 -0.454752,0.248047 -1.121378,0.248047 -0.630453,0 -1.064535,-0.222209 -0.428914,-0.227376 -0.692464,-0.661458 -0.26355,-0.43925 -0.377238,-1.07487 -0.108521,-0.640788 -0.108521,-1.467611 0,-0.764811 0.124024,-1.400431 0.124023,-0.640788 0.403076,-1.09554 0.279053,-0.459921 0.733805,-0.707967 0.454753,-0.253215 1.116211,-0.253215 0.63562,0 1.064535,0.227376 0.434082,0.222209 0.697632,0.661459 0.263549,0.434082 0.37207,1.074869 0.113688,0.635621 0.113688,1.462443 z m -0.909505,0.06201 q 0,-0.501261 -0.03617,-0.89917 -0.03617,-0.397908 -0.10852,-0.702799 -0.06718,-0.304891 -0.180868,-0.521932 -0.10852,-0.222209 -0.263549,-0.361735 -0.15503,-0.144694 -0.356568,-0.206706 -0.19637,-0.06718 -0.444417,-0.06718 -0.43925,0 -0.713135,0.206706 -0.273885,0.206705 -0.434082,0.56844 -0.155029,0.361735 -0.211873,0.847494 -0.05684,0.485758 -0.05684,1.043864 0,0.749308 0.07751,1.276407 0.07751,0.521932 0.24288,0.852662 0.170532,0.330729 0.428914,0.48059 0.26355,0.149862 0.63562,0.149862 0.289388,0 0.506429,-0.09302 0.222209,-0.09302 0.377238,-0.263549 0.160197,-0.1757 0.26355,-0.418579 0.103353,-0.24288 0.165364,-0.537435 0.06201,-0.294556 0.08268,-0.63562 0.02584,-0.346233 0.02584,-0.718303 z"
             style="stroke-width:0.26458332"
             id="path3084"
             inkscape:connector-curvature="0" />
          <path
             d="m 78.856017,47.956507 q 0,0.769979 -0.124024,1.405599 -0.118856,0.63562 -0.403076,1.095541 -0.279053,0.454752 -0.733805,0.707967 -0.454753,0.248047 -1.121379,0.248047 -0.630452,0 -1.064534,-0.222209 -0.428915,-0.227376 -0.692464,-0.661458 -0.26355,-0.43925 -0.377238,-1.07487 -0.108521,-0.640788 -0.108521,-1.467611 0,-0.764811 0.124024,-1.400431 0.124023,-0.640788 0.403076,-1.09554 0.279052,-0.459921 0.733805,-0.707967 0.454753,-0.253215 1.116211,-0.253215 0.63562,0 1.064534,0.227376 0.434082,0.222209 0.697632,0.661459 0.26355,0.434082 0.37207,1.074869 0.113689,0.635621 0.113689,1.462443 z m -0.909506,0.06201 q 0,-0.501261 -0.03617,-0.89917 -0.03617,-0.397908 -0.108521,-0.702799 -0.06718,-0.304891 -0.180867,-0.521932 -0.108521,-0.222209 -0.26355,-0.361735 -0.155029,-0.144694 -0.356567,-0.206706 -0.196371,-0.06718 -0.444418,-0.06718 -0.439249,0 -0.713134,0.206706 -0.273885,0.206705 -0.434082,0.56844 -0.15503,0.361735 -0.211874,0.847494 -0.05684,0.485758 -0.05684,1.043864 0,0.749308 0.07752,1.276407 0.07752,0.521932 0.242879,0.852662 0.170532,0.330729 0.428915,0.48059 0.263549,0.149862 0.63562,0.149862 0.289388,0 0.506429,-0.09302 0.222208,-0.09302 0.377238,-0.263549 0.160197,-0.1757 0.263549,-0.418579 0.103353,-0.24288 0.165365,-0.537435 0.06201,-0.294556 0.08268,-0.63562 0.02584,-0.346233 0.02584,-0.718303 z"
             style="stroke-width:0.26458332"
             id="path3086"
             inkscape:connector-curvature="0" />
        </g>
      </g>
      <g
         id="g3200">
        <path
           style="fill:#ffcc00;fill-opacity:1;stroke:#000000;stroke-width:0.35770527;stroke-linejoin:miter;stroke-miterlimit:4;stroke-dasharray:none;stroke-opacity:1"
           d="m 194.50954,400.182 c 0.49107,-0.26783 33.43002,-18.2704 73.19766,-40.00571 l 72.30481,-39.51874 0.63484,0.82358 c 1.28976,1.67319 7.80862,15.29404 10.05151,21.00215 6.87196,17.48903 10.96465,35.95184 11.89508,53.66071 l 0.23925,4.55357 -84.60801,-0.0143 c -71.64708,-0.0121 -84.47122,-0.0889 -83.71514,-0.50128 z"
           id="path2987"
           inkscape:connector-curvature="0"
           transform="scale(0.26458333)" />
        <text
           xml:space="preserve"
           style="font-style:normal;font-variant:normal;font-weight:normal;font-stretch:normal;font-size:10.58333302px;line-height:1.25;font-family:Calibri;-inkscape-font-specification:Calibri;letter-spacing:0px;word-spacing:0px;fill:#000000;fill-opacity:1;stroke:none;stroke-width:0.26458332"
           x="56.637695"
           y="116.40405"
           id="text3070"
           transform="rotate(-11.381828)"><tspan
             sodipodi:role="line"
             id="tspan3068"
             x="56.637695"
             y="116.40405"
             style="stroke-width:0.26458332">$50</tspan></text>
      </g>
      <g
         id="g3205">
        <path
           style="fill:#00aa00;fill-opacity:1;stroke:#000000;stroke-width:0.35770527;stroke-linejoin:miter;stroke-miterlimit:4;stroke-dasharray:none;stroke-opacity:1"
           d="m 271.32431,438.61259 -76.5781,-36.30788 83.86901,-0.09 c 46.12796,-0.0495 83.9631,0.005 84.0781,0.12083 0.316,0.3187 0.075,12.59682 -0.34295,17.46921 -1.23471,14.3955 -3.82484,27.11057 -8.21404,40.32312 -2.4124,7.26194 -5.33742,14.58303 -5.87679,14.70914 -0.19643,0.0459 -34.81728,-16.25504 -76.93523,-36.22438 z"
           id="path3001"
           inkscape:connector-curvature="0"
           transform="scale(0.26458333)" />
        <text
           xml:space="preserve"
           style="font-style:normal;font-variant:normal;font-weight:normal;font-stretch:normal;font-size:10.58333302px;line-height:1.25;font-family:Calibri;-inkscape-font-specification:Calibri;letter-spacing:0px;word-spacing:0px;fill:#000000;fill-opacity:1;stroke:none;stroke-width:0.26458332"
           x="76.162201"
           y="116.23289"
           id="text3074"><tspan
             sodipodi:role="line"
             id="tspan3072"
             x="76.162201"
             y="116.23289"
             style="stroke-width:0.26458332">$10</tspan></text>
      </g>
      <g
         id="g3190">
        <path
           style="fill:#000000;fill-opacity:1;stroke:#000000;stroke-width:0.35770527;stroke-linejoin:miter;stroke-miterlimit:4;stroke-dasharray:none;stroke-opacity:1"
           d="m 147.16685,328.69229 c -23.95259,-38.80785 -43.59355,-70.67526 -43.64658,-70.81647 -0.12368,-0.32935 4.44635,-2.88393 10.8107,-6.04302 21.72407,-10.78324 45.45298,-16.84335 69.64961,-17.78778 l 6.24325,-0.24368 0.004,22.2874 c 0.002,12.25807 0.16642,49.43108 0.36522,82.60669 0.1988,33.17562 0.30807,60.37269 0.24282,60.43794 -0.0653,0.0652 -19.71621,-31.63324 -43.66879,-70.44108 z"
           id="path2993"
           inkscape:connector-curvature="0"
           transform="scale(0.26458333)" />
        <g
           aria-label="$250"
           style="font-style:normal;font-variant:normal;font-weight:normal;font-stretch:normal;font-size:10.58333302px;line-height:1.25;font-family:Calibri;-inkscape-font-specification:Calibri;letter-spacing:0px;word-spacing:0px;fill:#ffffff;fill-opacity:1;stroke:none;stroke-width:0.26458332"
           id="text3078"
           transform="rotate(-107.5718,99.261837,105.25468)">
          <path
             d="m 140.22622,60.668911 q 0,0.413411 -0.1602,0.754476 -0.15503,0.335897 -0.44442,0.578776 -0.28939,0.242879 -0.70796,0.387573 -0.41858,0.144694 -0.93535,0.170532 l -0.11369,1.121379 q -0.005,0.03101 -0.0207,0.05684 -0.0103,0.03101 -0.0465,0.04651 -0.0362,0.02067 -0.10335,0.03101 -0.062,0.01033 -0.16536,0.01033 -0.11886,0 -0.19121,-0.0155 -0.0672,-0.01033 -0.10852,-0.03101 -0.0413,-0.0155 -0.0568,-0.05168 -0.0103,-0.03101 0,-0.07235 l 0.11886,-1.116211 q -0.24805,-0.03101 -0.45993,-0.07751 -0.21187,-0.05168 -0.37723,-0.10852 -0.16537,-0.05684 -0.28422,-0.118856 -0.11369,-0.06201 -0.17054,-0.113688 -0.0517,-0.05684 -0.0723,-0.144694 -0.0207,-0.08785 -0.0207,-0.242879 0,-0.113689 0.0103,-0.186036 0.0103,-0.07751 0.031,-0.124023 0.0207,-0.05168 0.0517,-0.06718 0.0362,-0.02067 0.0827,-0.02067 0.0672,0 0.1912,0.07751 0.12402,0.07235 0.32556,0.165364 0.20671,0.08785 0.50126,0.165365 0.29456,0.07751 0.70797,0.07751 0.7338,0 1.11104,-0.289388 0.38241,-0.289388 0.38241,-0.785481 0,-0.304891 -0.13953,-0.506429 -0.13952,-0.206706 -0.37207,-0.3514 -0.22737,-0.149862 -0.52193,-0.253215 -0.28939,-0.10852 -0.59428,-0.217041 -0.29972,-0.10852 -0.59428,-0.248046 -0.28939,-0.139527 -0.51676,-0.346233 -0.22738,-0.206705 -0.36691,-0.501261 -0.13952,-0.299723 -0.13952,-0.733805 0,-0.346232 0.11885,-0.645956 0.11886,-0.299723 0.35657,-0.521932 0.23771,-0.227376 0.59945,-0.366902 0.36173,-0.144694 0.84232,-0.1757 l 0.10336,-1.043864 q 0.005,-0.03101 0.0155,-0.05684 0.0155,-0.03101 0.0517,-0.05168 0.0362,-0.02067 0.0982,-0.02584 0.062,-0.01033 0.17053,-0.01033 0.11369,0 0.18604,0.01033 0.0775,0.01034 0.11369,0.03617 0.0413,0.02067 0.0517,0.05168 0.0103,0.03101 0.0103,0.07235 l -0.11369,1.033529 q 0.15503,0.0155 0.32039,0.05684 0.17054,0.03617 0.31523,0.08785 0.14986,0.04651 0.26872,0.10852 0.11885,0.05684 0.1602,0.09819 0.0465,0.04134 0.062,0.07751 0.0207,0.03617 0.031,0.08268 0.0103,0.04651 0.0155,0.10852 0.0103,0.06201 0.0103,0.139526 0,0.09819 -0.0103,0.170533 -0.005,0.07235 -0.0207,0.113688 -0.0155,0.04134 -0.0414,0.06201 -0.0258,0.02067 -0.062,0.02067 -0.0568,0 -0.18087,-0.06718 -0.12402,-0.06718 -0.31522,-0.144694 -0.18604,-0.07751 -0.43408,-0.144694 -0.24805,-0.06718 -0.55294,-0.06718 -0.34623,0 -0.59428,0.06718 -0.24288,0.06718 -0.39791,0.191202 -0.14986,0.118856 -0.22221,0.289388 -0.0672,0.170533 -0.0672,0.372071 0,0.310058 0.13953,0.516764 0.14469,0.206706 0.37207,0.3514 0.23254,0.144694 0.5271,0.248047 0.29456,0.103353 0.59945,0.217041 0.31005,0.10852 0.60461,0.242879 0.29456,0.134359 0.52193,0.341064 0.23255,0.206706 0.37207,0.506429 0.1447,0.294556 0.1447,0.728638 z"
             style="fill:#ffffff;fill-opacity:1;stroke-width:0.26458332"
             id="path3113"
             inkscape:connector-curvature="0" />
          <path
             d="m 145.55922,62.177863 q 0,0.09302 -0.0155,0.165364 -0.0103,0.07235 -0.0362,0.124024 -0.0207,0.04651 -0.062,0.07235 -0.0362,0.02067 -0.0827,0.02067 h -3.69486 q -0.0724,0 -0.12919,-0.0155 -0.0517,-0.02067 -0.093,-0.06201 -0.0362,-0.04134 -0.0568,-0.118856 -0.0155,-0.07751 -0.0155,-0.191203 0,-0.103353 0.005,-0.180867 0.0103,-0.07751 0.0362,-0.134359 0.0258,-0.06201 0.062,-0.118856 0.0413,-0.06201 0.10335,-0.129191 l 1.29708,-1.374593 q 0.44958,-0.475423 0.7183,-0.852661 0.27388,-0.377238 0.41858,-0.687297 0.14986,-0.310058 0.19637,-0.563273 0.0465,-0.253214 0.0465,-0.475423 0,-0.222209 -0.0724,-0.418579 -0.0724,-0.201538 -0.21187,-0.3514 -0.13436,-0.149861 -0.34107,-0.237711 -0.2067,-0.08785 -0.47542,-0.08785 -0.31523,0 -0.56844,0.08785 -0.24805,0.08785 -0.43925,0.191203 -0.18604,0.103352 -0.31523,0.191202 -0.12402,0.08785 -0.18603,0.08785 -0.0362,0 -0.0672,-0.02067 -0.0258,-0.02067 -0.0465,-0.06718 -0.0155,-0.04651 -0.0258,-0.124023 -0.0103,-0.07751 -0.0103,-0.186035 0,-0.07751 0.005,-0.134359 0.005,-0.05684 0.0155,-0.09819 0.0155,-0.04134 0.0362,-0.07751 0.0207,-0.03617 0.0827,-0.08785 0.062,-0.05684 0.21188,-0.149861 0.15503,-0.09302 0.3824,-0.180868 0.23255,-0.09302 0.50643,-0.155029 0.27905,-0.06201 0.58394,-0.06201 0.48576,0 0.8475,0.139526 0.3669,0.134359 0.60461,0.372071 0.24288,0.237711 0.36174,0.552938 0.11885,0.315226 0.11885,0.671793 0,0.320394 -0.0568,0.640788 -0.0568,0.315226 -0.24288,0.687296 -0.18087,0.366903 -0.5271,0.821656 -0.34623,0.449585 -0.91984,1.038696 l -1.05937,1.105876 h 2.90939 q 0.0413,0 0.0775,0.02584 0.0413,0.02067 0.0672,0.06718 0.031,0.04651 0.0413,0.118856 0.0155,0.06718 0.0155,0.160197 z"
             style="fill:#ffffff;fill-opacity:1;stroke-width:0.26458332"
             id="path3115"
             inkscape:connector-curvature="0" />
          <path
             d="m 150.90257,60.410529 q 0,0.537435 -0.18087,0.956014 -0.18087,0.418579 -0.5116,0.707967 -0.33073,0.28422 -0.79065,0.434082 -0.45475,0.149862 -1.01285,0.149862 -0.31006,0 -0.58912,-0.04651 -0.27905,-0.04134 -0.49609,-0.103353 -0.21704,-0.06718 -0.35657,-0.129191 -0.13952,-0.06201 -0.18086,-0.09819 -0.0362,-0.03617 -0.0517,-0.06718 -0.0155,-0.03101 -0.031,-0.07235 -0.0103,-0.04651 -0.0155,-0.113688 -0.005,-0.06718 -0.005,-0.160197 0,-0.08785 0.005,-0.155029 0.0103,-0.07235 0.031,-0.113688 0.0207,-0.04651 0.0465,-0.06718 0.031,-0.02067 0.0672,-0.02067 0.0517,0 0.1602,0.06718 0.10852,0.06201 0.28939,0.139527 0.18603,0.07235 0.45475,0.139526 0.27389,0.06718 0.64596,0.06718 0.34623,0 0.63562,-0.08268 0.28939,-0.08268 0.49609,-0.258382 0.21187,-0.1757 0.33073,-0.43925 0.11886,-0.268717 0.11886,-0.651123 0,-0.320394 -0.10336,-0.563273 -0.0982,-0.248047 -0.31006,-0.408244 -0.2067,-0.165364 -0.5271,-0.242879 -0.32039,-0.08268 -0.76481,-0.08268 -0.31522,0 -0.5426,0.03101 -0.22738,0.03101 -0.42375,0.03101 -0.14469,0 -0.2067,-0.06718 -0.062,-0.06718 -0.062,-0.258382 V 56.20924 q 0,-0.170532 0.0775,-0.253214 0.0827,-0.08268 0.23255,-0.08268 h 2.96105 q 0.0413,0 0.0775,0.02584 0.0413,0.02067 0.0672,0.06718 0.0258,0.04651 0.0362,0.118856 0.0155,0.07235 0.0155,0.170532 0,0.186035 -0.0517,0.289388 -0.0517,0.103353 -0.1447,0.103353 h -2.49597 v 1.875854 q 0.18087,-0.02584 0.36691,-0.03101 0.1912,-0.0052 0.43925,-0.0052 0.5736,0 1.00252,0.139526 0.42891,0.134359 0.71313,0.387573 0.28939,0.248047 0.43409,0.604614 0.14986,0.356568 0.14986,0.79065 z"
             style="fill:#ffffff;fill-opacity:1;stroke-width:0.26458332"
             id="path3117"
             inkscape:connector-curvature="0" />
          <path
             d="m 156.53013,59.2013 q 0,0.769979 -0.12402,1.405599 -0.11886,0.63562 -0.40308,1.095541 -0.27905,0.454752 -0.7338,0.707967 -0.45476,0.248047 -1.12138,0.248047 -0.63046,0 -1.06454,-0.222209 -0.42891,-0.227376 -0.69246,-0.661458 -0.26355,-0.43925 -0.37724,-1.07487 -0.10852,-0.640788 -0.10852,-1.467611 0,-0.764811 0.12402,-1.400431 0.12403,-0.640788 0.40308,-1.09554 0.27905,-0.459921 0.73381,-0.707967 0.45475,-0.253215 1.11621,-0.253215 0.63562,0 1.06453,0.227376 0.43408,0.222209 0.69763,0.661459 0.26355,0.434082 0.37207,1.074869 0.11369,0.635621 0.11369,1.462443 z m -0.9095,0.06201 q 0,-0.501261 -0.0362,-0.89917 -0.0362,-0.397908 -0.10852,-0.702799 -0.0672,-0.304891 -0.18087,-0.521932 -0.10852,-0.222209 -0.26355,-0.361735 -0.15502,-0.144694 -0.35656,-0.206706 -0.19637,-0.06718 -0.44442,-0.06718 -0.43925,0 -0.71314,0.206705 -0.27388,0.206706 -0.43408,0.568441 -0.15503,0.361735 -0.21187,0.847494 -0.0568,0.485758 -0.0568,1.043864 0,0.749308 0.0775,1.276407 0.0775,0.521932 0.24288,0.852661 0.17053,0.33073 0.42891,0.480591 0.26355,0.149862 0.63562,0.149862 0.28939,0 0.50643,-0.09302 0.22221,-0.09302 0.37724,-0.263549 0.1602,-0.1757 0.26355,-0.41858 0.10335,-0.242879 0.16537,-0.537434 0.062,-0.294556 0.0827,-0.63562 0.0258,-0.346233 0.0258,-0.718303 z"
             style="fill:#ffffff;fill-opacity:1;stroke-width:0.26458332"
             id="path3119"
             inkscape:connector-curvature="0" />
        </g>
      </g>
      <g
         id="g3152">
        <path
           style="fill:#000000;fill-opacity:1;stroke:#000000;stroke-width:0.35770527;stroke-linejoin:miter;stroke-miterlimit:4;stroke-dasharray:none;stroke-opacity:1"
           d="m 282.8106,548.4579 c -8.19954,-13.0634 -89.42281,-144.97054 -89.32497,-145.06434 0.24938,-0.23907 154.2266,72.84111 154.23239,73.20129 0.0106,0.66066 -4.84667,10.28196 -7.62683,15.10718 -13.14288,22.81073 -31.80642,42.88054 -53.14367,57.14797 l -2.74059,1.83253 z"
           id="path2995"
           inkscape:connector-curvature="0"
           transform="scale(0.26458333)" />
        <g
           transform="rotate(45.304882,26.831137,10.988731)"
           id="g3130"
           style="font-style:normal;font-variant:normal;font-weight:normal;font-stretch:normal;font-size:10.58333302px;line-height:1.25;font-family:Calibri;-inkscape-font-specification:Calibri;letter-spacing:0px;word-spacing:0px;fill:#ffffff;fill-opacity:1;stroke:none;stroke-width:0.26458332"
           aria-label="$250">
          <path
             inkscape:connector-curvature="0"
             id="path3122"
             style="fill:#ffffff;fill-opacity:1;stroke-width:0.26458332"
             d="m 140.22622,60.668911 q 0,0.413411 -0.1602,0.754476 -0.15503,0.335897 -0.44442,0.578776 -0.28939,0.242879 -0.70796,0.387573 -0.41858,0.144694 -0.93535,0.170532 l -0.11369,1.121379 q -0.005,0.03101 -0.0207,0.05684 -0.0103,0.03101 -0.0465,0.04651 -0.0362,0.02067 -0.10335,0.03101 -0.062,0.01033 -0.16536,0.01033 -0.11886,0 -0.19121,-0.0155 -0.0672,-0.01033 -0.10852,-0.03101 -0.0413,-0.0155 -0.0568,-0.05168 -0.0103,-0.03101 0,-0.07235 l 0.11886,-1.116211 q -0.24805,-0.03101 -0.45993,-0.07751 -0.21187,-0.05168 -0.37723,-0.10852 -0.16537,-0.05684 -0.28422,-0.118856 -0.11369,-0.06201 -0.17054,-0.113688 -0.0517,-0.05684 -0.0723,-0.144694 -0.0207,-0.08785 -0.0207,-0.242879 0,-0.113689 0.0103,-0.186036 0.0103,-0.07751 0.031,-0.124023 0.0207,-0.05168 0.0517,-0.06718 0.0362,-0.02067 0.0827,-0.02067 0.0672,0 0.1912,0.07751 0.12402,0.07235 0.32556,0.165364 0.20671,0.08785 0.50126,0.165365 0.29456,0.07751 0.70797,0.07751 0.7338,0 1.11104,-0.289388 0.38241,-0.289388 0.38241,-0.785481 0,-0.304891 -0.13953,-0.506429 -0.13952,-0.206706 -0.37207,-0.3514 -0.22737,-0.149862 -0.52193,-0.253215 -0.28939,-0.10852 -0.59428,-0.217041 -0.29972,-0.10852 -0.59428,-0.248046 -0.28939,-0.139527 -0.51676,-0.346233 -0.22738,-0.206705 -0.36691,-0.501261 -0.13952,-0.299723 -0.13952,-0.733805 0,-0.346232 0.11885,-0.645956 0.11886,-0.299723 0.35657,-0.521932 0.23771,-0.227376 0.59945,-0.366902 0.36173,-0.144694 0.84232,-0.1757 l 0.10336,-1.043864 q 0.005,-0.03101 0.0155,-0.05684 0.0155,-0.03101 0.0517,-0.05168 0.0362,-0.02067 0.0982,-0.02584 0.062,-0.01033 0.17053,-0.01033 0.11369,0 0.18604,0.01033 0.0775,0.01034 0.11369,0.03617 0.0413,0.02067 0.0517,0.05168 0.0103,0.03101 0.0103,0.07235 l -0.11369,1.033529 q 0.15503,0.0155 0.32039,0.05684 0.17054,0.03617 0.31523,0.08785 0.14986,0.04651 0.26872,0.10852 0.11885,0.05684 0.1602,0.09819 0.0465,0.04134 0.062,0.07751 0.0207,0.03617 0.031,0.08268 0.0103,0.04651 0.0155,0.10852 0.0103,0.06201 0.0103,0.139526 0,0.09819 -0.0103,0.170533 -0.005,0.07235 -0.0207,0.113688 -0.0155,0.04134 -0.0414,0.06201 -0.0258,0.02067 -0.062,0.02067 -0.0568,0 -0.18087,-0.06718 -0.12402,-0.06718 -0.31522,-0.144694 -0.18604,-0.07751 -0.43408,-0.144694 -0.24805,-0.06718 -0.55294,-0.06718 -0.34623,0 -0.59428,0.06718 -0.24288,0.06718 -0.39791,0.191202 -0.14986,0.118856 -0.22221,0.289388 -0.0672,0.170533 -0.0672,0.372071 0,0.310058 0.13953,0.516764 0.14469,0.206706 0.37207,0.3514 0.23254,0.144694 0.5271,0.248047 0.29456,0.103353 0.59945,0.217041 0.31005,0.10852 0.60461,0.242879 0.29456,0.134359 0.52193,0.341064 0.23255,0.206706 0.37207,0.506429 0.1447,0.294556 0.1447,0.728638 z" />
          <path
             inkscape:connector-curvature="0"
             id="path3124"
             style="fill:#ffffff;fill-opacity:1;stroke-width:0.26458332"
             d="m 145.55922,62.177863 q 0,0.09302 -0.0155,0.165364 -0.0103,0.07235 -0.0362,0.124024 -0.0207,0.04651 -0.062,0.07235 -0.0362,0.02067 -0.0827,0.02067 h -3.69486 q -0.0724,0 -0.12919,-0.0155 -0.0517,-0.02067 -0.093,-0.06201 -0.0362,-0.04134 -0.0568,-0.118856 -0.0155,-0.07751 -0.0155,-0.191203 0,-0.103353 0.005,-0.180867 0.0103,-0.07751 0.0362,-0.134359 0.0258,-0.06201 0.062,-0.118856 0.0413,-0.06201 0.10335,-0.129191 l 1.29708,-1.374593 q 0.44958,-0.475423 0.7183,-0.852661 0.27388,-0.377238 0.41858,-0.687297 0.14986,-0.310058 0.19637,-0.563273 0.0465,-0.253214 0.0465,-0.475423 0,-0.222209 -0.0724,-0.418579 -0.0724,-0.201538 -0.21187,-0.3514 -0.13436,-0.149861 -0.34107,-0.237711 -0.2067,-0.08785 -0.47542,-0.08785 -0.31523,0 -0.56844,0.08785 -0.24805,0.08785 -0.43925,0.191203 -0.18604,0.103352 -0.31523,0.191202 -0.12402,0.08785 -0.18603,0.08785 -0.0362,0 -0.0672,-0.02067 -0.0258,-0.02067 -0.0465,-0.06718 -0.0155,-0.04651 -0.0258,-0.124023 -0.0103,-0.07751 -0.0103,-0.186035 0,-0.07751 0.005,-0.134359 0.005,-0.05684 0.0155,-0.09819 0.0155,-0.04134 0.0362,-0.07751 0.0207,-0.03617 0.0827,-0.08785 0.062,-0.05684 0.21188,-0.149861 0.15503,-0.09302 0.3824,-0.180868 0.23255,-0.09302 0.50643,-0.155029 0.27905,-0.06201 0.58394,-0.06201 0.48576,0 0.8475,0.139526 0.3669,0.134359 0.60461,0.372071 0.24288,0.237711 0.36174,0.552938 0.11885,0.315226 0.11885,0.671793 0,0.320394 -0.0568,0.640788 -0.0568,0.315226 -0.24288,0.687296 -0.18087,0.366903 -0.5271,0.821656 -0.34623,0.449585 -0.91984,1.038696 l -1.05937,1.105876 h 2.90939 q 0.0413,0 0.0775,0.02584 0.0413,0.02067 0.0672,0.06718 0.031,0.04651 0.0413,0.118856 0.0155,0.06718 0.0155,0.160197 z" />
          <path
             inkscape:connector-curvature="0"
             id="path3126"
             style="fill:#ffffff;fill-opacity:1;stroke-width:0.26458332"
             d="m 150.90257,60.410529 q 0,0.537435 -0.18087,0.956014 -0.18087,0.418579 -0.5116,0.707967 -0.33073,0.28422 -0.79065,0.434082 -0.45475,0.149862 -1.01285,0.149862 -0.31006,0 -0.58912,-0.04651 -0.27905,-0.04134 -0.49609,-0.103353 -0.21704,-0.06718 -0.35657,-0.129191 -0.13952,-0.06201 -0.18086,-0.09819 -0.0362,-0.03617 -0.0517,-0.06718 -0.0155,-0.03101 -0.031,-0.07235 -0.0103,-0.04651 -0.0155,-0.113688 -0.005,-0.06718 -0.005,-0.160197 0,-0.08785 0.005,-0.155029 0.0103,-0.07235 0.031,-0.113688 0.0207,-0.04651 0.0465,-0.06718 0.031,-0.02067 0.0672,-0.02067 0.0517,0 0.1602,0.06718 0.10852,0.06201 0.28939,0.139527 0.18603,0.07235 0.45475,0.139526 0.27389,0.06718 0.64596,0.06718 0.34623,0 0.63562,-0.08268 0.28939,-0.08268 0.49609,-0.258382 0.21187,-0.1757 0.33073,-0.43925 0.11886,-0.268717 0.11886,-0.651123 0,-0.320394 -0.10336,-0.563273 -0.0982,-0.248047 -0.31006,-0.408244 -0.2067,-0.165364 -0.5271,-0.242879 -0.32039,-0.08268 -0.76481,-0.08268 -0.31522,0 -0.5426,0.03101 -0.22738,0.03101 -0.42375,0.03101 -0.14469,0 -0.2067,-0.06718 -0.062,-0.06718 -0.062,-0.258382 V 56.20924 q 0,-0.170532 0.0775,-0.253214 0.0827,-0.08268 0.23255,-0.08268 h 2.96105 q 0.0413,0 0.0775,0.02584 0.0413,0.02067 0.0672,0.06718 0.0258,0.04651 0.0362,0.118856 0.0155,0.07235 0.0155,0.170532 0,0.186035 -0.0517,0.289388 -0.0517,0.103353 -0.1447,0.103353 h -2.49597 v 1.875854 q 0.18087,-0.02584 0.36691,-0.03101 0.1912,-0.0052 0.43925,-0.0052 0.5736,0 1.00252,0.139526 0.42891,0.134359 0.71313,0.387573 0.28939,0.248047 0.43409,0.604614 0.14986,0.356568 0.14986,0.79065 z" />
          <path
             inkscape:connector-curvature="0"
             id="path3128"
             style="fill:#ffffff;fill-opacity:1;stroke-width:0.26458332"
             d="m 156.53013,59.2013 q 0,0.769979 -0.12402,1.405599 -0.11886,0.63562 -0.40308,1.095541 -0.27905,0.454752 -0.7338,0.707967 -0.45476,0.248047 -1.12138,0.248047 -0.63046,0 -1.06454,-0.222209 -0.42891,-0.227376 -0.69246,-0.661458 -0.26355,-0.43925 -0.37724,-1.07487 -0.10852,-0.640788 -0.10852,-1.467611 0,-0.764811 0.12402,-1.400431 0.12403,-0.640788 0.40308,-1.09554 0.27905,-0.459921 0.73381,-0.707967 0.45475,-0.253215 1.11621,-0.253215 0.63562,0 1.06453,0.227376 0.43408,0.222209 0.69763,0.661459 0.26355,0.434082 0.37207,1.074869 0.11369,0.635621 0.11369,1.462443 z m -0.9095,0.06201 q 0,-0.501261 -0.0362,-0.89917 -0.0362,-0.397908 -0.10852,-0.702799 -0.0672,-0.304891 -0.18087,-0.521932 -0.10852,-0.222209 -0.26355,-0.361735 -0.15502,-0.144694 -0.35656,-0.206706 -0.19637,-0.06718 -0.44442,-0.06718 -0.43925,0 -0.71314,0.206705 -0.27388,0.206706 -0.43408,0.568441 -0.15503,0.361735 -0.21187,0.847494 -0.0568,0.485758 -0.0568,1.043864 0,0.749308 0.0775,1.276407 0.0775,0.521932 0.24288,0.852661 0.17053,0.33073 0.42891,0.480591 0.26355,0.149862 0.63562,0.149862 0.28939,0 0.50643,-0.09302 0.22221,-0.09302 0.37724,-0.263549 0.1602,-0.1757 0.26355,-0.41858 0.10335,-0.242879 0.16537,-0.537434 0.062,-0.294556 0.0827,-0.63562 0.0258,-0.346233 0.0258,-0.718303 z" />
        </g>
      </g>
      <g
         id="g3182">
        <path
           style="fill:#ffcc00;fill-opacity:1;stroke:#000000;stroke-width:0.35770527;stroke-linejoin:miter;stroke-miterlimit:4;stroke-dasharray:none;stroke-opacity:1"
           d="m 18.608465,399.71542 c 0.08387,-0.54018 0.240825,-2.86262 0.348784,-5.16099 0.595482,-12.67732 3.771687,-28.83699 8.409539,-42.78544 2.199224,-6.61422 5.867636,-15.71335 8.114711,-20.12774 l 1.349471,-2.65104 73.03571,34.58746 c 40.16965,19.02311 74.16072,35.14771 75.53572,35.83245 l 2.5,1.24499 -84.72322,0.0212 -84.72321,0.0212 z"
           id="path2989"
           inkscape:connector-curvature="0"
           transform="scale(0.26458333)" />
        <text
           id="text3156"
           y="-88.730804"
           x="-44.622505"
           style="font-style:normal;font-variant:normal;font-weight:normal;font-stretch:normal;font-size:10.58333302px;line-height:1.25;font-family:Calibri;-inkscape-font-specification:Calibri;letter-spacing:0px;word-spacing:0px;fill:#000000;fill-opacity:1;stroke:none;stroke-width:0.26458332"
           xml:space="preserve"
           transform="rotate(-167.29173)"><tspan
             style="stroke-width:0.26458332"
             y="-88.730804"
             x="-44.622505"
             id="tspan3154"
             sodipodi:role="line">$50</tspan></text>
      </g>
      <g
         id="g3215">
        <path
           style="fill:#ffcc00;fill-opacity:1;stroke:#000000;stroke-width:0.35770527;stroke-linejoin:miter;stroke-miterlimit:4;stroke-dasharray:none;stroke-opacity:1"
           d="M 99.33097,552.01257 C 74.215256,536.13285 53.553069,514.23384 39.742994,488.85772 l -1.681539,-3.08984 1.170472,-0.7026 c 3.278857,-1.96822 149.264743,-81.57107 149.381443,-81.45437 0.20238,0.20239 -83.94771,151.14475 -84.32077,151.24851 -0.17533,0.0488 -2.40806,-1.23232 -4.96163,-2.84685 z"
           id="path2991"
           inkscape:connector-curvature="0"
           transform="scale(0.26458333)" />
        <text
           xml:space="preserve"
           style="font-style:normal;font-variant:normal;font-weight:normal;font-stretch:normal;font-size:10.58333302px;line-height:1.25;font-family:Calibri;-inkscape-font-specification:Calibri;letter-spacing:0px;word-spacing:0px;fill:#000000;fill-opacity:1;stroke:none;stroke-width:0.26458332"
           x="63.188782"
           y="-110.94444"
           id="text3160"
           transform="rotate(137.92756)"><tspan
             sodipodi:role="line"
             id="tspan3158"
             x="63.188782"
             y="-110.94444"
             style="stroke-width:0.26458332">$50</tspan></text>
      </g>
      <g
         id="g3195">
        <path
           style="fill:#00aa00;fill-opacity:1;stroke:#000000;stroke-width:0.35770527;stroke-linejoin:miter;stroke-miterlimit:4;stroke-dasharray:none;stroke-opacity:1"
           d="m 192.23328,389.92523 c -0.11758,-3.79843 -0.29719,-33.02231 -0.39913,-64.94195 -0.10194,-31.91965 -0.28702,-65.46875 -0.41129,-74.55358 l -0.22595,-16.51785 h 2.92868 c 1.61077,0 5.28915,0.16702 8.17417,0.37116 22.81769,1.61454 45.13123,7.67476 65.09839,17.68032 l 4.66154,2.3359 -0.87184,1.50274 c -0.47951,0.8265 -18.27252,32.76166 -39.54003,70.96702 -21.2675,38.20536 -38.78801,69.59888 -38.93447,69.76338 -0.14646,0.1645 -0.36249,-2.80871 -0.48007,-6.60714 z"
           id="path2997"
           inkscape:connector-curvature="0"
           transform="scale(0.26458333)" />
        <text
           id="text3164"
           y="80.861641"
           x="-60.05444"
           style="font-style:normal;font-variant:normal;font-weight:normal;font-stretch:normal;font-size:10.58333302px;line-height:1.25;font-family:Calibri;-inkscape-font-specification:Calibri;letter-spacing:0px;word-spacing:0px;fill:#000000;fill-opacity:1;stroke:none;stroke-width:0.26458332"
           xml:space="preserve"
           transform="rotate(-73.50236)"><tspan
             style="stroke-width:0.26458332"
             y="80.861641"
             x="-60.05444"
             id="tspan3162"
             sodipodi:role="line">$10</tspan></text>
      </g>
      <g
         id="g3210">
        <path
           style="fill:#00aa00;fill-opacity:1;stroke:#000000;stroke-width:0.35770527;stroke-linejoin:miter;stroke-miterlimit:4;stroke-dasharray:none;stroke-opacity:1"
           d="m 177.54526,577.80864 c -17.28025,-1.39819 -33.91634,-5.25463 -50.17858,-11.632 -5.91994,-2.32156 -20.71662,-9.41182 -21.33501,-10.2233 -0.22698,-0.29786 13.03376,-24.40979 42.19844,-76.72923 l 42.52943,-76.29489 0.21714,22.72346 c 0.11942,12.4979 0.34244,51.93328 0.4956,87.63417 l 0.27848,64.91071 -5.31704,-0.05 c -2.92437,-0.0275 -6.92418,-0.18002 -8.88846,-0.33895 z"
           id="path2999"
           inkscape:connector-curvature="0"
           transform="scale(0.26458333)" />
        <text
           id="text3168"
           y="-75.75251"
           x="118.27357"
           style="font-style:normal;font-variant:normal;font-weight:normal;font-stretch:normal;font-size:10.58333302px;line-height:1.25;font-family:Calibri;-inkscape-font-specification:Calibri;letter-spacing:0px;word-spacing:0px;fill:#000000;fill-opacity:1;stroke:none;stroke-width:0.26458332"
           xml:space="preserve"
           transform="rotate(105.98221)"><tspan
             style="stroke-width:0.26458332"
             y="-75.75251"
             x="118.27357"
             id="tspan3166"
             sodipodi:role="line">$10</tspan></text>
      </g>
      <g
         id="g3177">
        <path
           style="fill:#00aa00;fill-opacity:1;stroke:#000000;stroke-width:0.35770527;stroke-linejoin:miter;stroke-miterlimit:4;stroke-dasharray:none;stroke-opacity:1"
           d="M 35.628525,480.79233 C 29.689869,468.95817 24.357533,452.79082 21.497067,437.9465 19.740209,428.82933 18.449083,415.31663 18.441306,405.96542 l -0.0032,-3.83929 84.732144,0.006 c 82.59982,0.006 84.70517,0.0226 83.66071,0.66692 -1.42998,0.88206 -148.318599,81.1067 -148.940859,81.34549 -0.331012,0.12702 -1.051626,-0.94111 -2.261583,-3.35223 z"
           id="path3003"
           inkscape:connector-curvature="0"
           transform="scale(0.26458333)" />
        <text
           xml:space="preserve"
           style="font-style:normal;font-variant:normal;font-weight:normal;font-stretch:normal;font-size:10.58333302px;line-height:1.25;font-family:Calibri;-inkscape-font-specification:Calibri;letter-spacing:0px;word-spacing:0px;fill:#000000;fill-opacity:1;stroke:none;stroke-width:0.26458332"
           x="6.1794825"
           y="-112.22264"
           id="text3172"
           transform="rotate(165.71792)"><tspan
             sodipodi:role="line"
             id="tspan3170"
             x="6.1794825"
             y="-112.22264"
             style="stroke-width:0.26458332">$10</tspan></text>
      </g>
    </g>
  </g>
</svg>
